<?xml version="1.0" encoding="utf-8"?>
<!-- Generator: Adobe Illustrator 17.0.2, SVG Export Plug-In . SVG Version: 6.00 Build 0)  -->
<!DOCTYPE svg PUBLIC "-//W3C//DTD SVG 1.1//EN" "http://www.w3.org/Graphics/SVG/1.1/DTD/svg11.dtd">
<svg version="1.1" id="Layer_1" xmlns="http://www.w3.org/2000/svg" xmlns:xlink="http://www.w3.org/1999/xlink" x="0px" y="0px"
	 width="163.381px" height="300px" viewBox="0 0 163.381 300" enable-background="new 0 0 163.381 300" xml:space="preserve">
<g>
	<path fill="#858177" d="M155.789,1.062L117.209,1C73.866,1,45.856,29.737,45.856,74.216v33.758H7.066
		c-3.352,0-6.066,2.717-6.066,6.069v48.911c0,3.352,2.717,6.066,6.066,6.066h38.79v123.418c0,3.352,2.714,6.066,6.066,6.066h50.61
		c3.352,0,6.066-2.717,6.066-6.066V169.02h45.355c3.352,0,6.066-2.714,6.066-6.066l0.019-48.911c0-1.609-0.641-3.151-1.777-4.29
		c-1.136-1.139-2.683-1.78-4.293-1.78h-45.37V79.357c0-13.754,3.278-20.737,21.195-20.737l25.989-0.009
		c3.349,0,6.063-2.717,6.063-6.066V7.128C161.846,3.782,159.135,1.068,155.789,1.062z"/>
</g>
</svg>
