<?xml version="1.0" encoding="utf-8"?>
<!-- Generator: Adobe Illustrator 17.0.2, SVG Export Plug-In . SVG Version: 6.00 Build 0)  -->
<!DOCTYPE svg PUBLIC "-//W3C//DTD SVG 1.1//EN" "http://www.w3.org/Graphics/SVG/1.1/DTD/svg11.dtd">
<svg version="1.1" id="Laag_1" xmlns="http://www.w3.org/2000/svg" xmlns:xlink="http://www.w3.org/1999/xlink" x="0px" y="0px"
	 width="288px" height="246px" viewBox="0 0 288 246" enable-background="new 0 0 288 246" xml:space="preserve">
<rect x="-33" y="-33.157" display="none" fill="#FFFFFF" width="340.157" height="340.157"/>
<g>
	<path fill="#FFFFFF" d="M32.725,244.002C15.561,244.002,2,230.785,2,214.204c0-16.669,13.561-29.631,30.725-29.631
		c17.081,0,30.645,13.047,30.645,29.631C63.37,230.785,49.806,244.002,32.725,244.002 M32.725,190.97
		c-13.058,0-23.942,10.268-23.942,23.234c0,12.961,10.884,23.317,23.942,23.317c13.062,0,23.779-10.357,23.779-23.317
		C56.504,201.237,45.787,190.97,32.725,190.97"/>
</g>
<polygon fill="#FFFFFF" points="95.002,243.665 88.304,243.665 88.304,184.741 125.563,184.741 125.563,191.221 95.002,191.221 
	95.002,211.932 122.381,211.932 122.381,218.413 95.002,218.413 "/>
<polygon fill="#FFFFFF" points="175.158,243.665 168.548,243.665 168.548,223.716 145.86,184.741 152.81,184.741 171.813,215.465 
	190.57,184.741 197.433,184.741 175.158,223.464 "/>
<g>
	<path fill="#FFFFFF" d="M264.797,243.665h-7.621l-12.142-18.77c-1.251,0.082-2.593,0.167-3.934,0.167h-15.567v18.604h-6.699V184.74
		h22.267c14.653,0,23.113,7.24,23.113,19.782c0,9.767-4.688,16.33-13.148,19.11L264.797,243.665z M225.534,191.222v27.358h15.567
		c10.635,0,16.664-4.716,16.664-13.888c0-8.925-6.029-13.471-16.664-13.471H225.534z"/>
	<path fill="#FFFFFF" d="M280.068,179.912c-3.024,0-5.412-2.329-5.412-5.25c0-2.936,2.388-5.223,5.412-5.223
		c3.01,0,5.397,2.302,5.397,5.223C285.465,177.583,283.078,179.912,280.068,179.912 M280.068,170.568
		c-2.3,0-4.219,1.809-4.219,4.094c0,2.282,1.919,4.104,4.219,4.104c2.299,0,4.188-1.822,4.188-4.104
		C284.255,172.377,282.367,170.568,280.068,170.568"/>
	<path fill="#FFFFFF" d="M282.247,177.016h-0.979l-0.936-1.56l-0.235,0.009h-1.218v1.551h-0.858v-5.154h2.076
		c1.315,0,2.066,0.641,2.066,1.76c0,0.824-0.381,1.408-1.064,1.671L282.247,177.016z M278.877,172.643v2.039h1.218
		c0.791,0,1.249-0.338,1.249-1.039c0-0.677-0.458-1-1.249-1H278.877z"/>
	<path fill="#FFFFFF" d="M133.487,155.787c-34.554,0-61.864-26.614-61.864-59.994c0-19.127,8.873-35.831,22.911-46.655
		c10.383-8.014,32.582-28.738,32.582-44.477c0.011,25.739-20.835,50.552-29.544,59.96c-7.617,8.234-12.295,19.119-12.295,31.172
		c0,26.098,21.909,46.948,48.21,46.948c26.296,0,47.866-20.85,47.866-46.948c0-12.064-4.606-22.949-12.156-31.172
		c-8.275-8.998-29.516-29.636-29.516-40.961c0,7.606,22.604,17.79,32.54,25.473c14.049,10.854,22.955,27.597,22.955,46.66
		C195.176,129.173,167.867,155.787,133.487,155.787"/>
</g>
</svg>
