<?xml version="1.0" encoding="utf-8"?>
<!-- Generator: Adobe Illustrator 17.0.2, SVG Export Plug-In . SVG Version: 6.00 Build 0)  -->
<!DOCTYPE svg PUBLIC "-//W3C//DTD SVG 1.1//EN" "http://www.w3.org/Graphics/SVG/1.1/DTD/svg11.dtd">
<svg version="1.1" id="Layer_1" xmlns="http://www.w3.org/2000/svg" xmlns:xlink="http://www.w3.org/1999/xlink" x="0px" y="0px"
	 width="360.333px" height="300px" viewBox="0 0 360.333 300" enable-background="new 0 0 360.333 300" xml:space="preserve">
<path fill="#858177" d="M353.306,35.642c-7.954,3.527-16.211,6.31-24.684,8.324c9.336-8.872,16.355-19.968,20.315-32.354l0,0
	c1.13-3.536-2.71-6.593-5.903-4.7l0,0c-11.787,6.991-24.483,12.236-37.737,15.591c-0.769,0.195-1.562,0.293-2.358,0.293
	c-2.414,0-4.761-0.896-6.607-2.523C282.23,7.845,264.093,1,245.263,1c-8.148,0-16.374,1.27-24.452,3.775
	c-25.026,7.762-44.336,28.406-50.394,53.875c-2.273,9.553-2.888,19.115-1.83,28.42c0.121,1.069-0.384,1.816-0.696,2.166
	c-0.547,0.614-1.323,0.965-2.129,0.965c-0.09,0-0.182-0.004-0.274-0.013c-54.781-5.09-104.18-31.482-139.098-74.314l0,0
	c-1.781-2.185-5.195-1.917-6.614,0.518l0,0C12.938,28.123,9.324,41.54,9.324,55.193c0,20.924,8.406,40.642,23.008,55.017
	c-6.14-1.456-12.084-3.749-17.604-6.815l0,0c-2.671-1.484-5.957,0.423-5.995,3.478l0,0c-0.382,31.084,17.816,58.742,45.079,71.197
	c-0.549,0.013-1.098,0.019-1.648,0.019c-4.321,0-8.697-0.417-13.004-1.24l0,0c-3.008-0.574-5.535,2.279-4.601,5.195l0,0
	c8.849,27.626,32.635,47.99,61.101,52.613c-23.624,15.859-51.135,24.224-79.769,24.224l-8.927-0.005
	c-2.75,0-5.076,1.793-5.777,4.457c-0.69,2.624,0.581,5.392,2.927,6.756c32.265,18.777,69.069,28.702,106.447,28.702
	c32.718,0,63.324-6.493,90.967-19.298c25.341-11.739,47.735-28.519,66.558-49.875c17.535-19.894,31.248-42.859,40.755-68.257
	c9.063-24.21,13.853-50.043,13.853-74.706V85.48c-0.001-3.96,1.79-7.686,4.915-10.223c11.858-9.627,22.183-20.96,30.689-33.684l0,0
	C360.544,38.214,357.002,34.003,353.306,35.642L353.306,35.642z"/>
</svg>
