<?xml version="1.0" encoding="utf-8"?>
<!-- Generator: Adobe Illustrator 17.0.2, SVG Export Plug-In . SVG Version: 6.00 Build 0)  -->
<!DOCTYPE svg PUBLIC "-//W3C//DTD SVG 1.1//EN" "http://www.w3.org/Graphics/SVG/1.1/DTD/svg11.dtd">
<svg version="1.1" id="Layer_1" xmlns="http://www.w3.org/2000/svg" xmlns:xlink="http://www.w3.org/1999/xlink" x="0px" y="0px"
	 width="249px" height="300px" viewBox="0 0 249 300" enable-background="new 0 0 249 300" xml:space="preserve">
<g>
	<g>
		<path fill="#858177" d="M242.829,154.795c-1.437-6.535-4.624-12.014-9.55-16.442c-4.93-4.428-10.603-7.03-17.027-7.806
			c-20.372-2.214-51.097-3.321-92.179-3.321c-41.08,0-71.751,1.107-92.014,3.321c-6.531,0.775-12.233,3.378-17.107,7.806
			c-4.873,4.429-8.084,9.91-9.635,16.442C2.44,167.641,1,187.017,1,212.927c0,26.352,1.44,45.73,4.318,58.132
			c1.442,6.53,4.625,12.014,9.553,16.44c4.927,4.429,10.602,6.975,17.023,7.64c20.376,2.325,51.103,3.488,92.181,3.488
			c41.075,0,71.808-1.163,92.176-3.488c6.424-0.665,12.07-3.211,16.943-7.64c4.873-4.425,8.084-9.91,9.633-16.44
			c2.878-12.846,4.32-32.222,4.32-58.132C247.147,186.575,245.706,167.197,242.829,154.795z M71.261,171.573H53.49v94.502H36.882
			v-94.502h-17.44v-15.612h51.82L71.261,171.573L71.261,171.573z M116.103,266.075h-14.782v-8.971
			c-5.979,6.757-11.628,10.133-16.943,10.133c-5.092,0-8.304-2.05-9.631-6.145c-0.885-2.657-1.33-6.701-1.33-12.126v-64.939H88.2
			v60.455c0,3.542,0.056,5.48,0.168,5.813c0.332,2.325,1.494,3.487,3.488,3.487c2.989,0,6.147-2.325,9.467-6.975v-62.781h14.782
			L116.103,266.075L116.103,266.075z M172.573,241.492c0,8.083-0.497,13.622-1.489,16.613c-1.887,6.086-5.815,9.131-11.793,9.131
			c-5.315,0-10.463-3.045-15.448-9.131v7.971h-14.779V155.961h14.779v36.041c4.764-5.976,9.91-8.966,15.448-8.966
			c5.978,0,9.906,3.101,11.793,9.301c0.991,2.878,1.489,8.359,1.489,16.442V241.492z M228.711,227.875h-29.729v14.45
			c0,7.64,2.544,11.458,7.639,11.458c3.653,0,5.869-1.991,6.643-5.98c0.219-1.106,0.332-4.483,0.332-10.129h15.114v2.158
			c0,5.427-0.113,8.636-0.333,9.635c-0.33,2.986-1.489,5.976-3.487,8.966c-3.986,5.869-9.97,8.803-17.941,8.803
			c-7.636,0-13.617-2.824-17.936-8.469c-3.209-4.097-4.814-10.519-4.814-19.267v-28.735c0-8.747,1.549-15.169,4.646-19.266
			c4.32-5.646,10.244-8.469,17.776-8.469c7.42,0,13.292,2.823,17.605,8.469c2.994,4.097,4.485,10.519,4.485,19.266L228.711,227.875
			L228.711,227.875z"/>
		<path fill="#858177" d="M151.312,196.485c-2.548,0-5.037,1.222-7.473,3.655v49.99c2.436,2.435,4.925,3.653,7.473,3.653
			c4.316,0,6.48-3.707,6.48-11.128v-35.041C157.792,200.194,155.632,196.485,151.312,196.485z"/>
		<path fill="#858177" d="M206.456,196.485c-4.982,0-7.473,3.767-7.473,11.291v7.64h14.946v-7.64
			C213.929,200.248,211.437,196.485,206.456,196.485z"/>
		<path fill="#858177" d="M61.632,67.269v45.011H78.24V67.269L98.333,1h-16.94L70.102,44.681L58.308,1H40.704
			c3.101,9.302,6.699,19.654,10.796,31.059C56.705,47.338,60.08,59.077,61.632,67.269z"/>
		<path fill="#858177" d="M120.589,113.443c7.64,0,13.507-2.824,17.604-8.471c3.102-4.097,4.65-10.63,4.65-19.598V56.308
			c0-8.857-1.553-15.336-4.65-19.433c-4.097-5.647-9.964-8.471-17.604-8.471c-7.421,0-13.234,2.824-17.44,8.471
			c-3.099,4.097-4.649,10.576-4.649,19.433v29.066c0,8.857,1.549,15.391,4.649,19.598
			C107.356,110.619,113.167,113.443,120.589,113.443z M113.446,53.318c0-7.64,2.381-11.461,7.143-11.461s7.141,3.82,7.141,11.461
			v34.877c0,7.753-2.379,11.626-7.141,11.626s-7.143-3.875-7.143-11.626V53.318z"/>
		<path fill="#858177" d="M166.259,113.443c5.54,0,11.244-3.433,17.11-10.299v9.135h15.114V29.401h-15.114V92.68
			c-3.323,4.762-6.476,7.141-9.47,7.141c-1.995,0-3.158-1.218-3.488-3.653c-0.111-0.222-0.167-2.161-0.167-5.814V29.401H155.13
			v65.44c0,5.646,0.446,9.796,1.33,12.455C157.901,111.393,161.166,113.443,166.259,113.443z"/>
	</g>
</g>
</svg>
